<?xml version="1.0" encoding="UTF-8" standalone="no"?>
<svg
   xmlns:dc="http://purl.org/dc/elements/1.1/"
   xmlns:cc="http://creativecommons.org/ns#"
   xmlns:rdf="http://www.w3.org/1999/02/22-rdf-syntax-ns#"
   xmlns:svg="http://www.w3.org/2000/svg"
   xmlns="http://www.w3.org/2000/svg"
   id="svg9987"
   version="1.1"
   viewBox="0 0 264.58333 194.46876"
   height="735"
   width="1000">
  <defs
     id="defs9981">
    <filter
       height="1.5423239"
       y="-0.27116197"
       width="1.2694227"
       x="-0.13471137"
       id="filter2823"
       style="color-interpolation-filters:sRGB">
      <feGaussianBlur
         id="feGaussianBlur2825"
         stdDeviation="0.50516484" />
    </filter>
    <filter
       height="1.4930561"
       y="-0.24652798"
       width="1.2834959"
       x="-0.14174794"
       id="filter2703"
       style="color-interpolation-filters:sRGB">
      <feGaussianBlur
         id="feGaussianBlur2705"
         stdDeviation="1.4039638" />
    </filter>
    <filter
       style="color-interpolation-filters:sRGB"
       id="filter3084-3"
       x="-0.13440908"
       width="1.2688183"
       y="-0.2723951"
       height="1.5447901">
      <feGaussianBlur
         stdDeviation="0.20744761"
         id="feGaussianBlur3086-6" />
    </filter>
    <filter
       height="1.8247921"
       y="-0.4123961"
       width="1.8557791"
       x="-0.42788956"
       id="filter1463"
       style="color-interpolation-filters:sRGB">
      <feGaussianBlur
         id="feGaussianBlur1465"
         stdDeviation="2.9525271" />
    </filter>
  </defs>
  <metadata
     id="metadata9984">
    <rdf:RDF>
      <cc:Work
         rdf:about="">
        <dc:format>image/svg+xml</dc:format>
        <dc:type
           rdf:resource="http://purl.org/dc/dcmitype/StillImage" />
        <dc:title></dc:title>
      </cc:Work>
    </rdf:RDF>
  </metadata>
  <g
     transform="translate(0,-102.53123)"
     id="layer1">
    <rect
       y="102.46693"
       x="0"
       height="194.53305"
       width="264.58334"
       id="rect5167-1"
       style="fill:#240f3d;fill-opacity:1;stroke:none;stroke-width:5.81916094;stroke-linecap:square;stroke-linejoin:miter;stroke-miterlimit:4;stroke-dasharray:none;stroke-opacity:1;paint-order:markers stroke fill" />
    <path
       transform="matrix(6.1433483,0,0,6.1433483,-548.51293,-828.34944)"
       style="fill:#494df5;fill-opacity:1;stroke:none;stroke-width:1.56128848;stroke-linecap:butt;stroke-linejoin:miter;stroke-miterlimit:4;stroke-dasharray:none;stroke-opacity:1;paint-order:markers stroke fill;filter:url(#filter1463)"
       d="m 102.27495,167.10393 c 0,4.57284 3.70703,7.25797 8.27987,5.99739 4.57284,-1.26056 8.28019,-5.98983 8.28063,-10.56309 4.1e-4,-4.57328 -3.70661,-7.25838 -8.27987,-5.99738 -4.57325,1.26097 -8.28063,5.99024 -8.28063,10.56308 0,0 0,0 0,0"
       id="path3739" />
    <path
       id="path7382-2"
       d="m 101.42622,143.53418 c -1.435154,0.39601 -2.802095,1.04718 -4.064358,1.87599 v 6.55174 l 9.765818,-2.69313 c 0.34997,-1.13615 1.32385,-2.10554 2.42077,-2.40946 1.41225,-0.38926 2.55701,0.4396 2.55731,1.85204 -3e-4,1.41232 -1.14506,2.87277 -2.55731,3.26252 -1.09692,0.30085 -2.07086,-0.13077 -2.42077,-1.07433 l -11.383877,3.13936 v -7.41475 c -3.402136,2.89911 -5.68881,7.19268 -5.68881,11.41711 v 2.43666 l 17.069567,-4.70732 c 0.34935,-1.1383 1.325,-2.10985 2.42389,-2.41346 1.41225,-0.38925 2.55701,0.44022 2.55731,1.85211 -3e-4,1.41226 -1.14506,2.87271 -2.55731,3.26246 -1.09606,0.30146 -2.0697,-0.12954 -2.42077,-1.07114 l -17.072687,4.70818 v 4.86707 l 17.069567,-4.70732 c 0.34935,-1.13836 1.325,-2.10991 2.42389,-2.41346 1.41225,-0.38925 2.55701,0.43961 2.55731,1.85199 -3e-4,1.41238 -1.14506,2.87277 -2.55731,3.26252 -1.09974,0.30207 -2.07584,-0.13262 -2.42389,-1.07973 l -17.069567,4.70732 v 27.27633 l 12.186587,8.8259 v 3.24895 l 4.54665,3.29272 c 0.35303,-0.2726 0.74172,-0.47092 1.13584,-0.57959 1.41225,-0.38925 2.55694,0.44022 2.55719,1.85205 -2.5e-4,1.41232 -1.14494,2.87277 -2.55719,3.26252 -1.41219,0.38925 -2.55701,-0.44022 -2.55725,-1.85211 6.1e-4,-0.3954 0.0927,-0.81081 0.26953,-1.21327 l -5.02572,-3.6398 v -3.24889 L 90.054871,198.1771 v 4.1944 l 5.688809,4.12 v 19.4999 l 2.91888,2.11403 c 0.353645,-0.27445 0.743582,-0.47399 1.139038,-0.58389 1.412202,-0.38926 2.557002,0.4396 2.557252,1.85198 -2.5e-4,1.41226 -1.14505,2.87277 -2.557252,3.26246 -1.412256,0.38925 -2.557004,-0.4396 -2.55725,-1.85198 0.0011,-0.39725 0.09456,-0.81388 0.272603,-1.21739 l -3.404346,-2.45601 v -19.49677 l -4.05798,-2.93889 v 25.31243 l 14.137855,10.25177 2.91893,-0.80497 v -17.06949 c -1.04203,-0.062 -1.74453,-0.84398 -1.74503,-1.9428 3.2e-4,-1.41232 1.14506,-2.87277 2.55726,-3.26252 1.41225,-0.38925 2.55694,0.44022 2.55725,1.85211 -9.8e-4,1.09636 -0.70029,2.26291 -1.73865,2.90028 v 17.07268 l 6.48513,-1.78837 v -17.07275 c -1.03846,-0.0645 -1.73778,-0.84544 -1.7387,-1.94132 2.5e-4,-1.41232 1.14505,-2.87277 2.55725,-3.26252 1.41226,-0.38925 2.557,0.44022 2.55725,1.85211 -9.9e-4,1.09735 -0.70213,2.26451 -1.74184,2.90114 v 17.07269 l 43.04496,-11.87058 c 0.83777,-0.23086 1.65146,-0.54889 2.43672,-0.93538 v -5.42868 l -38.98389,10.7507 v -11.37756 c -1.04321,-0.0614 -1.74718,-0.84237 -1.74817,-1.94187 3.1e-4,-1.41238 1.14506,-2.87277 2.55719,-3.26252 1.41226,-0.38925 2.55701,0.44022 2.55732,1.85204 -9.9e-4,1.10013 -0.70496,2.27035 -1.74823,2.90612 v 9.75944 l 38.98378,-10.75063 v 6.55806 c 1.98435,-1.30125 3.69611,-3.06168 4.96543,-5.06556 l -6.10434,-4.42735 -29.73204,8.19927 c -0.34934,1.13837 -1.32507,2.10991 -2.42402,2.41352 -1.41226,0.38926 -2.557,-0.44021 -2.55725,-1.85204 2.5e-4,-1.41231 1.14499,-2.8727 2.55725,-3.26251 1.10067,-0.30208 2.077,0.13383 2.42402,1.08298 l 30.40464,-8.38476 6.34871,4.59784 c 0.91286,-1.89029 1.43405,-3.92223 1.43405,-5.93833 v -7.30999 l -37.70199,10.39717 -1.77045,-1.28222 c -0.35426,0.27322 -0.74383,0.47215 -1.13898,0.58082 -1.41226,0.38925 -2.557,-0.43961 -2.55731,-1.85205 3.1e-4,-1.41225 1.14505,-2.87277 2.55731,-3.26245 1.4122,-0.38926 2.55694,0.44022 2.55725,1.85204 -9.9e-4,0.39478 -0.0933,0.80885 -0.26953,1.21014 l 1.29449,0.93753 37.02939,-10.21169 v -4.86388 l -5.70151,1.57232 c -0.34996,1.13622 -1.32384,2.10555 -2.42077,2.40953 -1.41219,0.38926 -2.557,-0.44022 -2.55725,-1.85204 2.5e-4,-1.41232 1.14506,-2.87277 2.55725,-3.26252 1.09693,-0.30085 2.07087,0.13138 2.42077,1.07426 l 5.70151,-1.57231 v -8.1191 l -6.16474,1.70002 -9.74674,12.43784 -8.7917,2.42451 -3.39808,-2.46099 c -0.35426,0.27322 -0.74382,0.47214 -1.13904,0.58081 -1.41219,0.38927 -2.55694,-0.44021 -2.55725,-1.85204 3.1e-4,-1.41231 1.14506,-2.87276 2.55725,-3.26251 1.41226,-0.38926 2.55701,0.4396 2.55732,1.85204 -9.9e-4,0.39724 -0.0946,0.81382 -0.27261,1.21739 l 2.92526,2.10904 7.44649,-2.05348 9.74986,-12.42604 6.83424,-1.88465 v -1.63083 l -12.66255,3.49196 -2.91893,3.73025 c 0.1762,0.30453 0.26829,0.66751 0.26953,1.06155 -3.1e-4,1.41226 -1.14506,2.87271 -2.55732,3.26246 -1.41219,0.38926 -2.55694,-0.43961 -2.55725,-1.85204 3.1e-4,-1.41232 1.14506,-2.87277 2.55725,-3.26252 0.39479,-0.10745 0.78337,-0.12034 1.13591,-0.043 l 3.39803,-4.33507 13.33514,-3.67744 v -22.74554 l -4.07389,1.12345 c -0.34935,1.13836 -1.32501,2.10985 -2.42396,2.41346 -1.41218,0.38925 -2.55693,-0.4396 -2.55724,-1.85204 3.1e-4,-1.41226 1.14506,-2.87271 2.55724,-3.26246 1.09981,-0.30208 2.07591,0.13261 2.42396,1.07973 l 4.07389,-1.12345 v -8.12867 l -4.07389,1.12351 c -0.34812,1.13922 -1.32415,2.11237 -2.42396,2.41665 -1.41218,0.38925 -2.55693,-0.4396 -2.55724,-1.85211 3.1e-4,-1.41225 1.14506,-2.87271 2.55724,-3.26246 1.09981,-0.30206 2.07591,0.13262 2.42396,1.0798 l 4.07389,-1.12345 v -12.18646 c 0,-2.01585 -0.52495,-3.75652 -1.43726,-5.14329 l -9.12802,11.64531 v 30.19534 l 3.41633,2.47414 -1.14211,1.45726 -3.89234,-2.81579 v -31.53739 l 9.83557,-12.54797 c -0.6066,-0.62324 -1.31598,-1.13137 -2.10671,-1.51939 l -12.59593,16.08217 v 27.6158 l -6.47328,8.24042 -1.14855,-0.83182 5.98787,-7.63062 v -27.61574 l 12.85287,-16.39739 c -1.63795,-0.46048 -3.52456,-0.46232 -5.53962,0.094 l -12.18026,3.35892 v 5.68874 l -8.14132,2.24511 c -0.34996,1.13621 -1.3239,2.10561 -2.42089,2.40953 -1.41213,0.38925 -2.55687,-0.44022 -2.55718,-1.85205 3.1e-4,-1.41232 1.14505,-2.87277 2.55718,-3.26252 1.09699,-0.30084 2.07093,0.1314 2.42089,1.0744 l 6.51055,-1.7955 v -4.05798 l -22.40619,6.179 8.94095,6.47199 15.09601,-4.16303 v 11.38389 c 1.0397,0.0632 1.74048,0.8439 1.7419,1.94045 -3.1e-4,1.41238 -1.14506,2.87277 -2.55731,3.26258 -1.4122,0.38926 -2.55694,-0.44022 -2.55725,-1.8521 9.9e-4,-1.09735 0.70219,-2.26451 1.74189,-2.9012 v -9.76263 l -14.13791,3.89883 -10.55895,-7.64706 -12.3262,3.39912 13.8079,10.00012 18.34809,-5.05992 v 17.88497 c 1.0397,0.0632 1.74042,0.8439 1.74184,1.94052 -2.5e-4,1.41225 -1.14499,2.87271 -2.55725,3.26246 -1.4122,0.38925 -2.557,-0.44022 -2.55725,-1.85205 9.8e-4,-1.09643 0.70029,-2.26291 1.7387,-2.90028 v -16.25426 l -17.38679,4.7948 -15.42596,-11.18464 -5.3555,1.47685 m 19.49353,19.68279 c 1.41219,-0.38925 2.55688,0.44022 2.55719,1.85205 -3.1e-4,1.41238 -1.145,2.87277 -2.55719,3.26252 -1.09987,0.30208 -2.0759,-0.13262 -2.42403,-1.07973 l -28.437534,7.84229 v -1.61813 L 118.49572,165.632 c 0.34813,-1.13934 1.32416,-2.11236 2.42403,-2.41672 v 0 m -30.861564,20.00895 6.837304,-1.88556 4.88954,3.52604 -1.14868,1.46523 -4.426358,-3.18423 -6.15199,1.69658 1.84e-4,-1.6183 m 0,8.11595 16.238244,-4.47805 v 1.62131 l -16.238244,4.47806 v -1.62132 m -0.0033,40.94875 v 0.47582 c 0,6.29965 5.071584,9.97261 11.371174,8.23538 l 0.48257,-0.13324 -11.853744,-8.57809"
       style="opacity:1;fill:#240f3d;fill-opacity:1;stroke:none;stroke-width:3.24790645;stroke-linecap:round;stroke-linejoin:bevel;stroke-miterlimit:4;stroke-dasharray:none;stroke-opacity:1;paint-order:markers stroke fill" />
    <path
       id="rect10513-3-7-6-2-7"
       style="fill:#bf6940;fill-opacity:1;stroke:none;stroke-width:3.24892974;stroke-linecap:butt;stroke-linejoin:miter;stroke-miterlimit:4;stroke-dasharray:none;stroke-opacity:1;paint-order:markers stroke fill"
       d="m 159.52047,218.10372 -14.62019,4.03261 v 1.62445 l -1.62443,0.44759 v 0.16515 l -3.24896,-0.89474 -6.49784,1.79261 v 5.03843 l -1.23739,-0.33952 v -0.72657 l -1.62445,-0.44759 v -0.72977 l -3.63606,-1.00255 -12.99568,3.58203 v 1.79268 l -3.24894,-0.89475 -6.49784,1.79262 v 12.99573 l -9.746796,2.68736 v 3.24582 0.003 h 0.0061 l 3.629674,1.0026 14.620182,-4.03268 v -1.62444 l 1.62444,-0.44759 v -0.16823 l 3.24896,0.89468 12.99567,-3.58202 v -1.62451 l 1.62451,-0.44759 v -1.62444 l 1.23734,-0.3426 v 1.24372 l 3.63605,1.00262 6.49785,-1.79267 v -1.79262 l 3.24894,0.89793 14.62019,-4.03261 v -1.62445 l 1.62445,-0.44759 v -3.24888 -3.24895 l -1.62445,-0.44759 v -0.72971 l -3.63606,-1.0026 -4.48628,1.23739 v -1.24373 l 9.74679,-2.68734 v -3.24867 z m -15.85758,12.70705 1.23739,0.34259 v 0.72652 0.003 h 0.006 l 3.62967,1.00261 4.48629,-1.23739 v 1.24372 l -9.35968,2.57948 z m -15.00632,-74.04644 -11.37129,3.13475 v 1.62444 l -4.87339,1.34527 v 1.62445 l -3.24889,0.89474 v 1.62444 l -1.62451,0.44759 v 1.62445 l -1.62444,0.45065 v 1.62131 l -1.62444,0.45066 v 1.62447 l -1.62451,0.44759 v 1.6245 l -1.62445,0.44758 v 3.24893 l -1.624438,0.45065 v 4.8734 l -1.624509,0.44758 v 12.99255 0.003 h 0.0061 l 1.618188,0.44758 v 3.97866 l 1.624439,0.44758 v 2.35102 l 1.62445,0.44759 v 0.7297 l 1.62451,0.44758 v 0.72658 0.003 h 0.006 l 1.61812,0.44757 v 0.72658 0.003 h 0.006 l 1.61801,0.44758 v 0.72658 l 1.62445,0.44758 v 0.7297 l 3.636,1.00262 0.30453,-0.0823 2.94436,0.81228 1.92903,-0.53292 2.94437,0.81222 11.37123,-3.13469 v -1.62451 l 4.87339,-1.34521 v -1.62451 l 3.24895,-0.89467 v -1.62451 l 1.62445,-0.45065 v -1.62445 l 1.62451,-0.44759 v -1.62444 l 1.62443,-0.44758 v -1.62715 l 1.62445,-0.44759 v -1.62462 l 1.62451,-0.45065 v -0.30453 -2.94437 l -3.636,-1.00261 -0.30453,0.086 -2.94436,-0.81228 -0.29839,0.0823 -2.95068,-0.81222 -0.30453,0.0854 -2.94436,-0.81222 -0.29839,0.0823 -2.95069,-0.81222 -0.29838,0.0823 -2.95069,-0.81216 -0.30453,0.086 -2.55725,-0.70434 v -1.45947 l 3.24896,-0.89474 v -1.62444 l 3.24888,-0.89793 v -1.62465 l 3.24895,-0.89474 v -1.62445 l 3.24895,-0.8947 v -1.62445 l 3.24889,-0.89793 v -1.62448 l 3.24895,-0.89474 v -1.62445 l 3.24895,-0.89793 v -3.24888 l -1.62462,-0.44759 v -0.72664 l -1.62445,-0.44758 v -0.72976 l -1.62445,-0.44759 v -0.72977 l -1.6245,-0.44759 v -0.72976 l -1.62445,-0.44758 v -0.72658 l -3.63599,-1.00261 -0.2984,0.0823 -2.95067,-0.81223 -1.92904,0.53293 z" />
    <g
       transform="matrix(6.1397099,0,0,6.1397099,-989.14479,-767.34853)"
       aria-label="games"
       style="font-style:normal;font-weight:normal;font-size:3.17782235px;line-height:1.25;font-family:sans-serif;letter-spacing:0px;word-spacing:1.96627748px;fill:#44ccff;fill-opacity:1;stroke:none;stroke-width:0.07944555"
       id="text4711-9">
      <path
         d="m 179.43992,169.08747 c 0,0.0424 -0.0155,0.0834 -0.0465,0.12299 -0.03,0.0383 -0.0662,0.0632 -0.10862,0.075 -0.0424,0.0117 -0.0786,0.006 -0.10862,-0.0165 -0.031,-0.0214 -0.0465,-0.0529 -0.0465,-0.0942 -0.13344,0.13922 -0.28861,0.23321 -0.46551,0.282 -0.21414,0.0591 -0.39725,0.034 -0.54931,-0.0751 -0.15104,-0.11041 -0.22656,-0.27267 -0.22656,-0.4868 0,0 1e-5,-0.77582 1e-5,-0.77582 0,-0.21412 0.0755,-0.41752 0.22656,-0.6102 0.15206,-0.194 0.33517,-0.32052 0.54931,-0.37957 0.21414,-0.0591 0.39672,-0.0334 0.54776,0.077 0.15207,0.1091 0.2281,0.2707 0.2281,0.48482 0,0.0424 -0.0155,0.0834 -0.0465,0.123 -0.03,0.0383 -0.0662,0.0633 -0.10863,0.075 -0.0424,0.0117 -0.0791,0.007 -0.11017,-0.0146 -0.03,-0.0227 -0.045,-0.0553 -0.045,-0.0977 0,-0.12827 -0.0455,-0.22536 -0.13655,-0.29129 -0.091,-0.0659 -0.20069,-0.0812 -0.32896,-0.0458 -0.12828,0.0354 -0.23794,0.11113 -0.32897,0.22726 -0.091,0.11614 -0.13655,0.23834 -0.13655,0.3666 0,0 -1e-5,0.77582 -1e-5,0.77582 0,0.12827 0.0455,0.22536 0.13656,0.29128 0.091,0.0659 0.20068,0.0812 0.32896,0.0458 0.12828,-0.0354 0.23793,-0.11113 0.32896,-0.22726 0.091,-0.11613 0.13656,-0.23833 0.13656,-0.3666 0,0 0,-0.0776 0,-0.0776 0,0 -0.5431,0.14977 -0.5431,0.14977 -0.0424,0.0117 -0.0791,0.007 -0.11018,-0.0146 -0.03,-0.0228 -0.045,-0.0554 -0.045,-0.0977 0,-0.0424 0.015,-0.0827 0.045,-0.12103 0.031,-0.0395 0.0677,-0.0652 0.11017,-0.0769 0,0 0.69827,-0.19257 0.69827,-0.19257 0.0424,-0.0117 0.0786,-0.006 0.10863,0.0165 0.031,0.0214 0.0465,0.0534 0.0465,0.0958 0,0 -1e-4,0.8534 -1e-4,0.8534"
         style="font-style:normal;font-variant:normal;font-weight:normal;font-stretch:normal;font-family:Instruction;-inkscape-font-specification:Instruction;fill:#44ccff;fill-opacity:1;stroke-width:0.07944555"
         id="path4713-3" />
      <path
         d="m 180.16146,168.57815 c 0,0 -0.0853,0.30283 -0.0853,0.30283 -0.0207,0.0688 -0.0439,0.12231 -0.0698,0.16044 -0.0248,0.0368 -0.0584,0.0611 -0.10087,0.0728 -0.0424,0.0117 -0.0791,0.007 -0.11017,-0.0146 -0.03,-0.0228 -0.045,-0.0554 -0.045,-0.0977 0,-0.0352 0.0103,-0.0794 0.031,-0.13268 0,0 0.58967,-2.08664 0.58967,-2.08664 0,0 0.003,-8.3e-4 0.003,-8.3e-4 0.005,-0.0304 0.0198,-0.0603 0.0435,-0.0896 0.03,-0.0393 0.0662,-0.0648 0.10862,-0.0765 0.0424,-0.0117 0.0791,-0.006 0.11016,0.0161 0.0227,0.0165 0.0367,0.0385 0.0419,0.066 0,0 0.003,-8.2e-4 0.003,-8.2e-4 0,0 0.58965,1.76141 0.58965,1.76141 0.0207,0.0419 0.031,0.0804 0.031,0.11558 0,0.0424 -0.0155,0.0834 -0.0465,0.12299 -0.03,0.0383 -0.0662,0.0633 -0.10862,0.075 -0.0424,0.0117 -0.0765,0.006 -0.10242,-0.0168 -0.0248,-0.0242 -0.0476,-0.065 -0.0683,-0.12236 0,0 -0.0853,-0.25578 -0.0853,-0.25578 0,0 -0.72923,0.2011 -0.72923,0.2011 m 0.63467,-0.48534 c 0,0 -0.27,-0.81308 -0.27,-0.81308 0,0 -0.27001,0.962 -0.27001,0.962 0,0 0.54001,-0.14892 0.54001,-0.14892"
         style="font-style:normal;font-variant:normal;font-weight:normal;font-stretch:normal;font-family:Instruction;-inkscape-font-specification:Instruction;fill:#44ccff;fill-opacity:1;stroke-width:0.07944555"
         id="path4715-6" />
      <path
         d="m 183.16406,166.04333 c 0,0 0,2.01712 0,2.01712 0,0.0424 -0.0155,0.0834 -0.0465,0.12299 -0.03,0.0383 -0.0662,0.0633 -0.10863,0.075 -0.0424,0.0117 -0.0791,0.007 -0.11017,-0.0146 -0.03,-0.0228 -0.045,-0.0554 -0.045,-0.0978 0,0 0,-0.98218 0,-0.98218 0,0 -0.31034,1.0988 -0.31034,1.0988 0,0 -0.003,8.2e-4 -0.003,8.2e-4 -0.005,0.0305 -0.0193,0.0602 -0.0419,0.0892 -0.031,0.0395 -0.0677,0.0652 -0.11017,0.0769 -0.0424,0.0117 -0.0786,0.006 -0.10862,-0.0165 -0.0238,-0.0162 -0.0383,-0.038 -0.0434,-0.0656 0,0 -0.003,8.2e-4 -0.003,8.2e-4 0,0 -0.31034,-0.92763 -0.31034,-0.92763 0,0 -1e-5,0.98219 -1e-5,0.98219 0,0.0424 -0.0155,0.0834 -0.0465,0.12299 -0.03,0.0383 -0.0662,0.0633 -0.10862,0.075 -0.0424,0.0117 -0.0791,0.007 -0.11018,-0.0146 -0.03,-0.0228 -0.045,-0.0554 -0.045,-0.0978 0,0 10e-6,-2.01712 10e-6,-2.01712 0,-0.0424 0.0155,-0.0834 0.0465,-0.12299 0.03,-0.0383 0.0662,-0.0633 0.10862,-0.075 0.0424,-0.0117 0.0791,-0.007 0.11018,0.0146 0.0269,0.0205 0.047,0.062 0.0605,0.12451 0,0 0.44999,1.35306 0.44999,1.35306 0,0 0.45,-1.60125 0.45,-1.60125 0.0269,-0.0778 0.0502,-0.13125 0.0698,-0.16044 0.0248,-0.0368 0.0584,-0.0611 0.10087,-0.0728 0.0424,-0.0117 0.0786,-0.006 0.10862,0.0165 0.031,0.0214 0.0465,0.0534 0.0465,0.0958 0,0 -2e-4,1e-4 -2e-4,1e-4"
         style="font-style:normal;font-variant:normal;font-weight:normal;font-stretch:normal;font-family:Instruction;-inkscape-font-specification:Instruction;fill:#44ccff;fill-opacity:1;stroke-width:0.07944555"
         id="path4717-0" />
      <path
         d="m 184.87095,167.43457 c 0.0424,-0.0117 0.0786,-0.006 0.10862,0.0165 0.031,0.0214 0.0465,0.0534 0.0465,0.0958 0,0.0424 -0.0155,0.0834 -0.0465,0.12299 -0.03,0.0383 -0.0662,0.0633 -0.10862,0.075 0,0 -1.24138,0.34234 -1.24138,0.34234 -0.0424,0.0117 -0.0791,0.007 -0.11017,-0.0146 -0.03,-0.0228 -0.045,-0.0554 -0.045,-0.0978 0,0 0,-2.01712 0,-2.01712 0,-0.0424 0.015,-0.0827 0.045,-0.12103 0.031,-0.0395 0.0677,-0.0652 0.11018,-0.0769 0,0 1.24137,-0.34233 1.24137,-0.34233 0.0424,-0.0117 0.0786,-0.006 0.10862,0.0165 0.031,0.0215 0.0465,0.0534 0.0465,0.0958 0,0.0424 -0.0155,0.0834 -0.0465,0.12298 -0.03,0.0383 -0.0662,0.0633 -0.10862,0.075 0,0 -1.08621,0.29954 -1.08621,0.29954 0,0 0,0.69824 0,0.69824 0,0 0.93104,-0.25675 0.93104,-0.25675 0.0424,-0.0117 0.0786,-0.006 0.10862,0.0165 0.031,0.0215 0.0465,0.0534 0.0465,0.0958 0,0.0424 -0.0155,0.0834 -0.0465,0.12299 -0.03,0.0383 -0.0662,0.0633 -0.10862,0.075 0,0 -0.93104,0.25676 -0.93104,0.25676 0,0 0,0.69823 0,0.69823 0,0 1.08621,-0.29945 1.08621,-0.29945"
         style="font-style:normal;font-variant:normal;font-weight:normal;font-stretch:normal;font-family:Instruction;-inkscape-font-specification:Instruction;fill:#44ccff;fill-opacity:1;stroke-width:0.07944555"
         id="path4719-6" />
      <path
         d="m 186.8882,165.5206 c 0,0.0424 -0.0155,0.0834 -0.0465,0.12299 -0.03,0.0383 -0.0662,0.0633 -0.10863,0.075 -0.0424,0.0117 -0.0791,0.007 -0.11017,-0.0146 -0.03,-0.0227 -0.045,-0.0553 -0.045,-0.0978 0,-0.0962 -0.0341,-0.16903 -0.10241,-0.21847 -0.0683,-0.0495 -0.15052,-0.0609 -0.24672,-0.0344 0,0 -0.23276,0.0642 -0.23276,0.0642 -0.0962,0.0265 -0.17845,0.0833 -0.24673,0.17044 -0.0683,0.0871 -0.10241,0.17876 -0.10241,0.27496 0,0.0962 0.0341,0.16902 0.10241,0.21847 0.0683,0.0495 0.15052,0.0609 0.24673,0.0344 0,0 0.23276,-0.0642 0.23276,-0.0642 0.18206,-0.0502 0.33724,-0.0283 0.46551,0.0656 0.12931,0.0926 0.19397,0.22994 0.19397,0.41201 0,0.18205 -0.0647,0.35556 -0.19397,0.52052 -0.12827,0.16365 -0.28345,0.27058 -0.46551,0.32079 0,0 -0.23276,0.0642 -0.23276,0.0642 -0.18207,0.0502 -0.33777,0.029 -0.46708,-0.0636 -0.12827,-0.0939 -0.1924,-0.23193 -0.1924,-0.41398 0,-0.0424 0.015,-0.0827 0.045,-0.12103 0.031,-0.0395 0.0677,-0.0652 0.11017,-0.0769 0.0424,-0.0117 0.0786,-0.006 0.10862,0.0165 0.031,0.0214 0.0465,0.0534 0.0465,0.0958 0,0.0962 0.0341,0.16901 0.10241,0.21846 0.0683,0.0494 0.15052,0.0609 0.24673,0.0344 0,0 0.23276,-0.0642 0.23276,-0.0642 0.0962,-0.0265 0.17844,-0.0833 0.24672,-0.17045 0.0683,-0.0871 0.10241,-0.17875 0.10241,-0.27495 0,-0.0962 -0.0341,-0.16902 -0.10241,-0.21847 -0.0683,-0.0494 -0.15052,-0.0609 -0.24672,-0.0344 0,0 -0.23276,0.0642 -0.23276,0.0642 -0.18207,0.0502 -0.33777,0.029 -0.46708,-0.0636 -0.12827,-0.0939 -0.1924,-0.23192 -0.1924,-0.41397 0,-0.18206 0.0641,-0.35491 0.1924,-0.51855 0.12931,-0.16497 0.28501,-0.27255 0.46708,-0.32276 0,0 0.23276,-0.0642 0.23276,-0.0642 0.18206,-0.0502 0.33724,-0.0284 0.46551,0.0656 0.12931,0.0926 0.19397,0.22994 0.19397,0.41199 0,0 -1e-5,1e-5 -1e-5,1e-5"
         style="font-style:normal;font-variant:normal;font-weight:normal;font-stretch:normal;font-family:Instruction;-inkscape-font-specification:Instruction;fill:#44ccff;fill-opacity:1;stroke-width:0.07944555"
         id="path4721-2" />
    </g>
    <path
       id="path2430-6"
       style="font-style:normal;font-variant:normal;font-weight:normal;font-stretch:normal;font-size:2.8839581px;line-height:1.25;font-family:'8BIT WONDER';-inkscape-font-specification:'8BIT WONDER';letter-spacing:0px;word-spacing:1.78444922px;fill:#ffc900;fill-opacity:1;stroke:none;stroke-width:1.62446487;stroke-linecap:butt;stroke-linejoin:miter;stroke-miterlimit:4;stroke-dasharray:none;stroke-opacity:1;paint-order:markers stroke fill"
       d="m 107.92468,234.33822 v 12.99579 l -9.746789,2.68791 v 3.24894 l 14.620179,-4.03182 v -1.62451 l 1.62445,-0.44819 v -14.62019 z m 9.74679,-2.68803 v 16.24469 l 12.99574,-3.58388 v -1.62451 l 1.62445,-0.44819 v -1.62444 l 1.62444,-0.4482 v -9.74686 l -1.62444,0.4482 v -1.62444 l -1.62445,0.4482 v -1.62451 z m 19.49358,-5.37587 v 16.24475 l 6.49784,-1.79194 v -16.24475 z m 11.37124,-3.13586 v 1.6245 l -1.62451,0.4482 v 6.49784 l 1.62451,-0.4482 v 1.62445 l 8.12228,-2.23989 v 3.24895 l -9.74679,2.6879 v 3.24896 l 14.62018,-4.03183 v -1.62451 l 1.62451,-0.4482 v -6.49784 l -1.62451,0.4482 v -1.62444 l -8.12228,2.23989 v -3.24895 l 9.74679,-2.6879 v -3.24895 z m -24.36698,9.96868 3.24895,-0.89597 v 9.74679 l -3.24895,0.89596 v -9.74678 m -3.24889,-21.84644 c 0,0 -4.87345,1.34398 -4.87345,1.34398 0,0 0,-1.62445 0,-1.62445 0,0 -3.2489,0.89598 -3.2489,0.89598 0,0 0,-1.62457 0,-1.62457 0,0 -1.62444,0.4482 -1.62444,0.4482 0,0 0,-1.62445 0,-1.62445 0,0 -1.6245,0.4482 -1.6245,0.4482 0,0 0,-1.62445 0,-1.62445 0,0 -1.62445,0.4482 -1.62445,0.4482 0,0 0,-1.6245 0,-1.6245 0,0 -1.62444,0.4482 -1.62444,0.4482 0,0 0,-1.62444 0,-1.62444 0,0 -1.62451,0.4482 -1.62451,0.4482 0,0 0,-3.24896 0,-3.24896 0,0 -1.62444,0.4482 -1.62444,0.4482 0,0 0,-4.87339 0,-4.87339 0,0 -1.62445,0.4482 -1.62445,0.4482 0,0 0,-12.99575 0,-12.99575 0,0 1.62445,-0.4482 1.62445,-0.4482 0,0 0,-4.87339 0,-4.87339 0,0 1.62444,-0.4482 1.62444,-0.4482 0,0 -6e-5,-3.24895 -6e-5,-3.24895 0,0 1.6245,-0.44819 1.6245,-0.44819 0,0 0,-1.62448 0,-1.62448 0,0 1.62445,-0.4482 1.62445,-0.4482 0,0 0,-1.62454 0,-1.62454 0,0 1.62445,-0.4482 1.62445,-0.4482 0,0 0,-1.62444 0,-1.62444 0,0 1.6245,-0.4482 1.6245,-0.4482 0,0 0,-1.62444 0,-1.62444 0,0 1.6245,-0.4482 1.6245,-0.4482 0,0 -6e-5,-1.62451 -6e-5,-1.62451 0,0 3.24896,-0.89596 3.24896,-0.89596 0,0 0,-1.62445 0,-1.62445 0,0 4.87345,-1.34399 4.87345,-1.34399 0,0 0,-1.62444 0,-1.62444 0,0 11.37124,-3.13586 11.37124,-3.13586 0,0 0,1.62445 0,1.62445 0,0 4.87339,-1.34392 4.87339,-1.34392 0,0 0,1.62444 0,1.62444 0,0 3.24895,-0.89596 3.24895,-0.89596 0,0 0,1.6245 0,1.6245 0,0 1.62445,-0.44819 1.62445,-0.44819 0,0 0,1.62444 0,1.62444 0,0 1.6245,-0.4482 1.6245,-0.4482 0,0 0,1.62445 0,1.62445 0,0 1.62444,-0.4482 1.62444,-0.4482 0,0 0,1.6245 0,1.6245 0,0 1.62445,-0.4482 1.62445,-0.4482 0,0 0,1.62445 0,1.62445 0,0 1.62451,-0.4482 1.62451,-0.4482 0,0 0,3.24896 0,3.24896 0,0 -3.24896,0.89596 -3.24896,0.89596 0,0 0,1.62445 0,1.62445 0,0 -3.24894,0.89596 -3.24894,0.89596 0,0 0,1.62447 0,1.62447 0,0 -3.24889,0.89597 -3.24889,0.89597 0,0 0,1.6245 0,1.6245 0,0 -3.24896,0.89595 -3.24896,0.89595 0,0 0,1.62443 0,1.62443 0,0 -3.24894,0.89598 -3.24894,0.89598 0,0 0,1.62445 0,1.62445 0,0 -3.24896,0.89596 -3.24896,0.89596 0,0 0,1.62451 0,1.62451 0,0 -3.24888,0.89596 -3.24888,0.89596 0,0 0,3.2489 0,3.2489 0,0 3.24888,-0.89598 3.24888,-0.89598 0,0 0,1.62451 0,1.62451 0,0 3.24896,-0.89597 3.24896,-0.89597 0,0 0,1.62444 0,1.62444 0,0 3.24894,-0.89596 3.24894,-0.89596 0,0 0,1.62444 0,1.62444 0,0 3.24896,-0.89596 3.24896,-0.89596 0,0 0,1.6245 0,1.6245 0,0 3.24889,-0.89597 3.24889,-0.89597 0,0 0,1.62445 0,1.62445 0,0 3.24894,-0.89598 3.24894,-0.89598 0,0 0,1.62445 0,1.62445 0,0 3.2489,-0.89596 3.2489,-0.89596 0,0 0,3.24895 0,3.24895 0,0 -1.62451,0.44819 -1.62451,0.44819 0,0 0,1.62445 0,1.62445 0,0 -1.62445,0.4482 -1.62445,0.4482 0,0 0,1.6245 0,1.6245 0,0 -1.62444,0.4482 -1.62444,0.4482 0,0 0,1.62445 0,1.62445 0,0 -1.6245,0.4482 -1.6245,0.4482 0,0 0,1.62444 0,1.62444 0,0 -1.62445,0.4482 -1.62445,0.4482 0,0 0,1.6245 0,1.6245 0,0 -3.24895,0.89597 -3.24895,0.89597 0,0 0,1.62444 0,1.62444 0,0 -4.87333,1.34393 -4.87333,1.34393 0,0 0,1.62445 0,1.62445 0,0 -11.37124,3.13591 -11.37124,3.13591 0,0 0,-1.62444 0,-1.62444" />
    <path
       d="m 166.4045,174.34904 c 0,1.79433 -1.45455,3.65002 -3.24889,4.14488 -0.86171,0.23762 -1.68806,0.12341 -2.29736,-0.31803 -0.60905,-0.44144 -0.95159,-1.17324 -0.95159,-2.03492 0,-0.86164 0.3426,-1.78241 0.95159,-2.5597 0.60906,-0.77738 1.43565,-1.34758 2.29736,-1.58518 1.79434,-0.49487 3.24889,0.55871 3.24889,2.35295 0,0 0,0 0,0 m -16.24464,4.47987 c 0,1.79433 -1.45461,3.65006 -3.24894,4.14486 -1.79433,0.49486 -3.24896,-0.55872 -3.24896,-2.35292 0,-0.86165 0.34199,-1.78242 0.9516,-2.55971 0.60906,-0.77735 1.43571,-1.34754 2.29736,-1.58515 0.86171,-0.2376 1.68805,-0.12341 2.29736,0.31803 0.60905,0.44145 0.95158,1.17324 0.95158,2.03489 0,0 0,0 0,0"
       style="fill:#ffffff;fill-opacity:1;stroke:none;stroke-width:9.74678993;stroke-linecap:round;stroke-linejoin:bevel;stroke-miterlimit:4;stroke-dasharray:none;stroke-opacity:1;paint-order:stroke fill markers"
       id="circle5162-1" />
    <path
       transform="matrix(6.1397099,0,0,6.1397099,0,-437.69952)"
       id="path3074-3"
       style="fill:#ffffff;fill-opacity:1;stroke:none;stroke-width:1.58749998;stroke-linecap:round;stroke-linejoin:bevel;stroke-miterlimit:4;stroke-dasharray:none;stroke-opacity:1;paint-order:stroke fill markers;filter:url(#filter3084-3)"
       d="m 27.10299,99.686885 c 0,0.29225 -0.23691,0.594495 -0.52916,0.675095 -0.14035,0.0387 -0.27494,0.0201 -0.37418,-0.0518 -0.0992,-0.0719 -0.15499,-0.19109 -0.15499,-0.331435 0,-0.14034 0.0558,-0.29031 0.15499,-0.41691 0.0992,-0.126615 0.23383,-0.219485 0.37418,-0.258185 0.29225,-0.0806 0.52916,0.091 0.52916,0.383235 0,0 0,0 0,0 m -2.64583,0.729655 c 0,0.29225 -0.23692,0.5945 -0.52917,0.67509 -0.29225,0.0806 -0.52917,-0.091 -0.52917,-0.38323 0,-0.14034 0.0557,-0.29031 0.15499,-0.41691 0.0992,-0.12661 0.23384,-0.21948 0.37418,-0.25818 0.14035,-0.0387 0.27494,-0.0201 0.37418,0.0518 0.0992,0.0719 0.15499,0.19109 0.15499,0.33143 0,0 0,0 0,0" />
    <g
       aria-label="2019"
       style="font-style:normal;font-variant:normal;font-weight:normal;font-stretch:normal;font-size:10.58333302px;line-height:1.25;font-family:Instruction;-inkscape-font-specification:Instruction;letter-spacing:0px;word-spacing:6.54843807px;fill:#ffffff;fill-opacity:1;stroke:none;stroke-width:0.26458332"
       id="text2090"
       transform="matrix(-1.1139186,0,0,1.1139186,260.71933,84.189461)">
      <path
         style="font-style:normal;font-variant:normal;font-weight:normal;font-stretch:normal;font-family:Instruction;-inkscape-font-specification:Instruction;fill:#ffffff;fill-opacity:1;stroke-width:0.99999994"
         d="m 189.24217,283.22231 c 2.29168,0.63211 4.25131,1.98642 5.8789,4.06296 1.61459,2.05993 2.42188,4.23572 2.42188,6.52739 0,0.53385 -0.18881,0.94401 -0.56641,1.23048 -0.39062,0.26986 -0.85287,0.33116 -1.38672,0.18391 -0.53387,-0.14725 -0.98958,-0.46175 -1.36718,-0.94351 -0.39063,-0.49837 -0.58594,-1.01448 -0.58594,-1.54833 0,-1.21094 -0.4297,-2.36462 -1.28906,-3.46102 -0.85939,-1.09642 -1.89454,-1.81162 -3.10547,-2.14563 0,0 -2.92969,-0.80808 -2.92969,-0.80808 -1.21094,-0.33402 -2.24608,-0.18985 -3.10547,0.43248 -0.85936,0.62234 -1.28906,1.53898 -1.28906,2.74992 0,1.21093 0.4297,2.36461 1.28906,3.46102 0.85939,1.09641 1.89453,1.81162 3.10547,2.14563 0,0 2.92969,0.80808 2.92969,0.80808 2.29168,0.63211 4.25131,1.98642 5.8789,4.06296 1.61459,2.05993 2.42188,4.23572 2.42188,6.52739 0,0 0,6.34765 0,6.34765 0,0.53384 -0.18881,0.94401 -0.56641,1.23048 -0.39062,0.26986 -0.85287,0.33117 -1.38672,0.18392 0,0 -15.625,-4.30978 -15.625,-4.30978 -0.53384,-0.14725 -0.98958,-0.46176 -1.36718,-0.94351 -0.39063,-0.49837 -0.58594,-1.01449 -0.58594,-1.54833 0,-0.53388 0.19531,-0.93572 0.58594,-1.20557 0.3776,-0.28648 0.83334,-0.35609 1.36718,-0.20884 0,0 13.67188,3.77106 13.67188,3.77106 0,0 0,-4.39453 0,-4.39453 0,-1.21094 -0.4297,-2.36462 -1.28906,-3.46102 -0.85939,-1.09641 -1.89454,-1.81162 -3.10547,-2.14563 0,0 -2.92969,-0.80808 -2.92969,-0.80808 -2.29168,-0.63211 -4.24479,-1.97812 -5.85938,-4.03805 -1.62759,-2.07653 -2.4414,-4.26064 -2.4414,-6.5523 0,-2.29167 0.81381,-4.02032 2.4414,-5.18597 1.61459,-1.18226 3.5677,-1.45734 5.85938,-0.82523 0,0 2.92969,0.80808 2.92969,0.80808 m -24.90236,-6.86872 c 2.69531,0.74344 5.00001,2.33617 6.91407,4.77817 1.90105,2.4254 2.85156,4.98576 2.85156,7.68106 0,0 0,9.76563 0,9.76563 0,1.83593 -0.44271,3.36748 -1.32813,4.59459 0,0 0.54688,1.04929 0.54688,1.04929 0.52084,0.91189 0.78125,1.63473 0.78125,2.16861 0,0.53384 -0.18881,0.94401 -0.56641,1.23048 -0.39062,0.26986 -0.85287,0.33117 -1.38672,0.18392 -0.53387,-0.14726 -0.99609,-0.47006 -1.38672,-0.96843 -0.32556,-0.41532 -0.60551,-0.87665 -0.83984,-1.38399 -1.62759,0.70992 -3.48958,0.77576 -5.58594,0.19753 -2.6953,-0.74343 -4.99348,-2.32787 -6.89453,-4.75325 -1.91405,-2.44202 -2.87109,-5.01068 -2.87109,-7.70598 0,0 0,-9.76562 0,-9.76562 0,-1.83594 0.44271,-3.36747 1.32812,-4.59461 0,0 -0.54687,-1.04927 -0.54687,-1.04927 -0.52082,-0.91189 -0.78125,-1.63476 -0.78125,-2.16862 0,-0.53385 0.19531,-0.93571 0.58594,-1.20557 0.3776,-0.28647 0.83334,-0.35607 1.36718,-0.20883 0.53385,0.14725 0.98957,0.46175 1.36719,0.94351 0.33857,0.43193 0.62504,0.90157 0.85938,1.40892 1.62761,-0.70992 3.48958,-0.77576 5.58593,-0.19754 0,0 0,0 0,0 m -15.625,-4.30978 c 0.53387,0.14726 0.9961,0.47006 1.38672,0.96843 0.3776,0.48176 0.56641,0.98957 0.56641,1.52342 0,0.53386 -0.18881,0.94401 -0.56641,1.23048 -0.39062,0.26986 -0.85285,0.33118 -1.38672,0.18392 0,0 -5.85937,-1.61617 -5.85937,-1.61617 0,0 0,21.48437 0,21.48437 0,0 5.85937,1.61616 5.85937,1.61616 0.53387,0.14726 0.9961,0.47006 1.38672,0.96844 0.3776,0.48175 0.56641,0.98954 0.56641,1.52342 0,0.53384 -0.18881,0.94401 -0.56641,1.23047 -0.39062,0.26986 -0.85285,0.33118 -1.38672,0.18392 0,0 -15.625,-4.30978 -15.625,-4.30978 -0.53384,-0.14724 -0.98956,-0.46175 -1.36718,-0.94351 -0.39061,-0.49836 -0.58594,-1.01449 -0.58594,-1.54833 0,-0.53388 0.19533,-0.93571 0.58594,-1.20557 0.37762,-0.28647 0.83334,-0.35608 1.36718,-0.20884 0,0 5.85938,1.61617 5.85938,1.61617 0,0 0,-23.43749 0,-23.43749 0,-0.53385 0.19531,-0.93571 0.58594,-1.20557 0.3776,-0.28647 0.83331,-0.35609 1.36718,-0.20883 0,0 7.8125,2.15489 7.8125,2.15489 m -29.78516,-8.21552 c 2.29166,0.6321 4.2513,1.98642 5.87891,4.06295 1.61459,2.05994 2.42188,4.23573 2.42188,6.5274 0,2.29166 -0.80729,4.02863 -2.42188,5.21088 -1.62761,1.16565 -3.58725,1.43242 -5.87891,0.80033 0,0 -2.92969,-0.80809 -2.92969,-0.80809 -1.64062,-0.45252 -3.10546,-1.26672 -4.39453,-2.44259 0,0 0,5.625 0,5.625 0,1.21094 0.42967,2.3646 1.28906,3.46102 0.85936,1.0964 1.89453,1.81162 3.10547,2.14563 0,0 2.92969,0.80809 2.92969,0.80809 1.21093,0.334 2.24611,0.18983 3.10548,-0.43249 0.85938,-0.62234 1.28906,-1.53898 1.28906,-2.74992 0,-0.53385 0.19531,-0.93571 0.58594,-1.20557 0.3776,-0.28647 0.83334,-0.35608 1.36718,-0.20884 0.53387,0.14726 0.99612,0.47008 1.38672,0.96844 0.37763,0.48177 0.56641,0.98957 0.56641,1.52342 0,2.29167 -0.80729,4.02864 -2.42188,5.21088 -1.62761,1.16565 -3.58725,1.43242 -5.87891,0.80033 0,0 -2.92969,-0.80809 -2.92969,-0.80809 -2.29165,-0.63209 -4.24479,-1.97811 -5.85938,-4.03805 -1.62761,-2.07652 -2.44139,-4.26063 -2.44139,-6.5523 0,0 0,-12.69531 0,-12.69531 0,-2.29167 0.81378,-4.02032 2.44139,-5.18597 1.61459,-1.18226 3.56773,-1.45733 5.85938,-0.82524 0,0 2.92969,0.80809 2.92969,0.80809 m 45.41016,16.43155 c -1.34115,-0.36993 -2.51954,-0.29782 -3.53515,0.21632 0,0 9.35547,17.73672 9.35547,17.73672 0.026,-0.22719 0.0391,-0.46447 0.0391,-0.71187 0,0 0,-9.76562 0,-9.76562 0,-1.61458 -0.57293,-3.15282 -1.71875,-4.6147 -1.14583,-1.46188 -2.52604,-2.41549 -4.14063,-2.86084 0,0 -4e-5,-10e-6 -4e-5,-10e-6 m -45.41016,-12.5253 c 0,0 -2.92969,-0.80809 -2.92969,-0.80809 -1.21094,-0.334 -2.24611,-0.18985 -3.10547,0.4325 -0.85939,0.62232 -1.28906,1.53897 -1.28906,2.74991 0,1.21093 0.42967,2.3646 1.28906,3.46102 0.85936,1.09641 1.89453,1.81163 3.10547,2.14563 0,0 2.92969,0.80809 2.92969,0.80809 1.21093,0.334 2.24611,0.18984 3.10548,-0.43249 0.85938,-0.62234 1.28906,-1.53899 1.28906,-2.74992 0,-1.21093 -0.42968,-2.36461 -1.28906,-3.46102 -0.85937,-1.09642 -1.89455,-1.81162 -3.10548,-2.14563 0,0 0,0 0,0 m 39.58985,16.05662 c -0.026,0.22719 -0.0391,0.46446 -0.0391,0.71187 0,0 0,9.76563 0,9.76563 0,1.61458 0.57292,3.15281 1.71875,4.61469 1.14582,1.46188 2.52603,2.4155 4.14062,2.86084 1.34116,0.36993 2.51955,0.29781 3.53516,-0.21632 0,0 -9.35543,-17.73671 -9.35543,-17.73671"
         transform="matrix(0.26458333,0,0,0.26458333,44.446521,32.449538)"
         id="path2092" />
    </g>
    <g
       transform="matrix(-1.1139186,0,0,1.1139186,260.71933,84.189461)"
       id="g2621"
       style="font-style:normal;font-variant:normal;font-weight:normal;font-stretch:normal;font-size:10.58333302px;line-height:1.25;font-family:Instruction;-inkscape-font-specification:Instruction;letter-spacing:0px;word-spacing:6.54843807px;fill:#ffffff;fill-opacity:1;stroke:none;stroke-width:0.26458332;filter:url(#filter2703)"
       aria-label="2019">
      <path
         id="path2619"
         transform="matrix(0.26458333,0,0,0.26458333,44.446521,32.449538)"
         d="m 189.24217,283.22231 c 2.29168,0.63211 4.25131,1.98642 5.8789,4.06296 1.61459,2.05993 2.42188,4.23572 2.42188,6.52739 0,0.53385 -0.18881,0.94401 -0.56641,1.23048 -0.39062,0.26986 -0.85287,0.33116 -1.38672,0.18391 -0.53387,-0.14725 -0.98958,-0.46175 -1.36718,-0.94351 -0.39063,-0.49837 -0.58594,-1.01448 -0.58594,-1.54833 0,-1.21094 -0.4297,-2.36462 -1.28906,-3.46102 -0.85939,-1.09642 -1.89454,-1.81162 -3.10547,-2.14563 0,0 -2.92969,-0.80808 -2.92969,-0.80808 -1.21094,-0.33402 -2.24608,-0.18985 -3.10547,0.43248 -0.85936,0.62234 -1.28906,1.53898 -1.28906,2.74992 0,1.21093 0.4297,2.36461 1.28906,3.46102 0.85939,1.09641 1.89453,1.81162 3.10547,2.14563 0,0 2.92969,0.80808 2.92969,0.80808 2.29168,0.63211 4.25131,1.98642 5.8789,4.06296 1.61459,2.05993 2.42188,4.23572 2.42188,6.52739 0,0 0,6.34765 0,6.34765 0,0.53384 -0.18881,0.94401 -0.56641,1.23048 -0.39062,0.26986 -0.85287,0.33117 -1.38672,0.18392 0,0 -15.625,-4.30978 -15.625,-4.30978 -0.53384,-0.14725 -0.98958,-0.46176 -1.36718,-0.94351 -0.39063,-0.49837 -0.58594,-1.01449 -0.58594,-1.54833 0,-0.53388 0.19531,-0.93572 0.58594,-1.20557 0.3776,-0.28648 0.83334,-0.35609 1.36718,-0.20884 0,0 13.67188,3.77106 13.67188,3.77106 0,0 0,-4.39453 0,-4.39453 0,-1.21094 -0.4297,-2.36462 -1.28906,-3.46102 -0.85939,-1.09641 -1.89454,-1.81162 -3.10547,-2.14563 0,0 -2.92969,-0.80808 -2.92969,-0.80808 -2.29168,-0.63211 -4.24479,-1.97812 -5.85938,-4.03805 -1.62759,-2.07653 -2.4414,-4.26064 -2.4414,-6.5523 0,-2.29167 0.81381,-4.02032 2.4414,-5.18597 1.61459,-1.18226 3.5677,-1.45734 5.85938,-0.82523 0,0 2.92969,0.80808 2.92969,0.80808 m -24.90236,-6.86872 c 2.69531,0.74344 5.00001,2.33617 6.91407,4.77817 1.90105,2.4254 2.85156,4.98576 2.85156,7.68106 0,0 0,9.76563 0,9.76563 0,1.83593 -0.44271,3.36748 -1.32813,4.59459 0,0 0.54688,1.04929 0.54688,1.04929 0.52084,0.91189 0.78125,1.63473 0.78125,2.16861 0,0.53384 -0.18881,0.94401 -0.56641,1.23048 -0.39062,0.26986 -0.85287,0.33117 -1.38672,0.18392 -0.53387,-0.14726 -0.99609,-0.47006 -1.38672,-0.96843 -0.32556,-0.41532 -0.60551,-0.87665 -0.83984,-1.38399 -1.62759,0.70992 -3.48958,0.77576 -5.58594,0.19753 -2.6953,-0.74343 -4.99348,-2.32787 -6.89453,-4.75325 -1.91405,-2.44202 -2.87109,-5.01068 -2.87109,-7.70598 0,0 0,-9.76562 0,-9.76562 0,-1.83594 0.44271,-3.36747 1.32812,-4.59461 0,0 -0.54687,-1.04927 -0.54687,-1.04927 -0.52082,-0.91189 -0.78125,-1.63476 -0.78125,-2.16862 0,-0.53385 0.19531,-0.93571 0.58594,-1.20557 0.3776,-0.28647 0.83334,-0.35607 1.36718,-0.20883 0.53385,0.14725 0.98957,0.46175 1.36719,0.94351 0.33857,0.43193 0.62504,0.90157 0.85938,1.40892 1.62761,-0.70992 3.48958,-0.77576 5.58593,-0.19754 0,0 0,0 0,0 m -15.625,-4.30978 c 0.53387,0.14726 0.9961,0.47006 1.38672,0.96843 0.3776,0.48176 0.56641,0.98957 0.56641,1.52342 0,0.53386 -0.18881,0.94401 -0.56641,1.23048 -0.39062,0.26986 -0.85285,0.33118 -1.38672,0.18392 0,0 -5.85937,-1.61617 -5.85937,-1.61617 0,0 0,21.48437 0,21.48437 0,0 5.85937,1.61616 5.85937,1.61616 0.53387,0.14726 0.9961,0.47006 1.38672,0.96844 0.3776,0.48175 0.56641,0.98954 0.56641,1.52342 0,0.53384 -0.18881,0.94401 -0.56641,1.23047 -0.39062,0.26986 -0.85285,0.33118 -1.38672,0.18392 0,0 -15.625,-4.30978 -15.625,-4.30978 -0.53384,-0.14724 -0.98956,-0.46175 -1.36718,-0.94351 -0.39061,-0.49836 -0.58594,-1.01449 -0.58594,-1.54833 0,-0.53388 0.19533,-0.93571 0.58594,-1.20557 0.37762,-0.28647 0.83334,-0.35608 1.36718,-0.20884 0,0 5.85938,1.61617 5.85938,1.61617 0,0 0,-23.43749 0,-23.43749 0,-0.53385 0.19531,-0.93571 0.58594,-1.20557 0.3776,-0.28647 0.83331,-0.35609 1.36718,-0.20883 0,0 7.8125,2.15489 7.8125,2.15489 m -29.78516,-8.21552 c 2.29166,0.6321 4.2513,1.98642 5.87891,4.06295 1.61459,2.05994 2.42188,4.23573 2.42188,6.5274 0,2.29166 -0.80729,4.02863 -2.42188,5.21088 -1.62761,1.16565 -3.58725,1.43242 -5.87891,0.80033 0,0 -2.92969,-0.80809 -2.92969,-0.80809 -1.64062,-0.45252 -3.10546,-1.26672 -4.39453,-2.44259 0,0 0,5.625 0,5.625 0,1.21094 0.42967,2.3646 1.28906,3.46102 0.85936,1.0964 1.89453,1.81162 3.10547,2.14563 0,0 2.92969,0.80809 2.92969,0.80809 1.21093,0.334 2.24611,0.18983 3.10548,-0.43249 0.85938,-0.62234 1.28906,-1.53898 1.28906,-2.74992 0,-0.53385 0.19531,-0.93571 0.58594,-1.20557 0.3776,-0.28647 0.83334,-0.35608 1.36718,-0.20884 0.53387,0.14726 0.99612,0.47008 1.38672,0.96844 0.37763,0.48177 0.56641,0.98957 0.56641,1.52342 0,2.29167 -0.80729,4.02864 -2.42188,5.21088 -1.62761,1.16565 -3.58725,1.43242 -5.87891,0.80033 0,0 -2.92969,-0.80809 -2.92969,-0.80809 -2.29165,-0.63209 -4.24479,-1.97811 -5.85938,-4.03805 -1.62761,-2.07652 -2.44139,-4.26063 -2.44139,-6.5523 0,0 0,-12.69531 0,-12.69531 0,-2.29167 0.81378,-4.02032 2.44139,-5.18597 1.61459,-1.18226 3.56773,-1.45733 5.85938,-0.82524 0,0 2.92969,0.80809 2.92969,0.80809 m 45.41016,16.43155 c -1.34115,-0.36993 -2.51954,-0.29782 -3.53515,0.21632 0,0 9.35547,17.73672 9.35547,17.73672 0.026,-0.22719 0.0391,-0.46447 0.0391,-0.71187 0,0 0,-9.76562 0,-9.76562 0,-1.61458 -0.57293,-3.15282 -1.71875,-4.6147 -1.14583,-1.46188 -2.52604,-2.41549 -4.14063,-2.86084 0,0 -4e-5,-10e-6 -4e-5,-10e-6 m -45.41016,-12.5253 c 0,0 -2.92969,-0.80809 -2.92969,-0.80809 -1.21094,-0.334 -2.24611,-0.18985 -3.10547,0.4325 -0.85939,0.62232 -1.28906,1.53897 -1.28906,2.74991 0,1.21093 0.42967,2.3646 1.28906,3.46102 0.85936,1.09641 1.89453,1.81163 3.10547,2.14563 0,0 2.92969,0.80809 2.92969,0.80809 1.21093,0.334 2.24611,0.18984 3.10548,-0.43249 0.85938,-0.62234 1.28906,-1.53899 1.28906,-2.74992 0,-1.21093 -0.42968,-2.36461 -1.28906,-3.46102 -0.85937,-1.09642 -1.89455,-1.81162 -3.10548,-2.14563 0,0 0,0 0,0 m 39.58985,16.05662 c -0.026,0.22719 -0.0391,0.46446 -0.0391,0.71187 0,0 0,9.76563 0,9.76563 0,1.61458 0.57292,3.15281 1.71875,4.61469 1.14582,1.46188 2.52603,2.4155 4.14062,2.86084 1.34116,0.36993 2.51955,0.29781 3.53516,-0.21632 0,0 -9.35543,-17.73671 -9.35543,-17.73671"
         style="font-style:normal;font-variant:normal;font-weight:normal;font-stretch:normal;font-family:Instruction;-inkscape-font-specification:Instruction;fill:#ffffff;fill-opacity:1;stroke-width:0.99999994" />
    </g>
    <g
       id="g2717"
       style="font-style:normal;font-weight:normal;font-size:3.17782235px;line-height:1.25;font-family:sans-serif;letter-spacing:0px;word-spacing:1.96627748px;fill:#44ccff;fill-opacity:1;stroke:none;stroke-width:0.07944555;filter:url(#filter2823)"
       aria-label="games"
       transform="matrix(6.1397099,0,0,6.1397099,-989.14479,-767.34853)">
      <path
         id="path2707"
         style="font-style:normal;font-variant:normal;font-weight:normal;font-stretch:normal;font-family:Instruction;-inkscape-font-specification:Instruction;fill:#44ccff;fill-opacity:1;stroke-width:0.07944555"
         d="m 179.43992,169.08747 c 0,0.0424 -0.0155,0.0834 -0.0465,0.12299 -0.03,0.0383 -0.0662,0.0632 -0.10862,0.075 -0.0424,0.0117 -0.0786,0.006 -0.10862,-0.0165 -0.031,-0.0214 -0.0465,-0.0529 -0.0465,-0.0942 -0.13344,0.13922 -0.28861,0.23321 -0.46551,0.282 -0.21414,0.0591 -0.39725,0.034 -0.54931,-0.0751 -0.15104,-0.11041 -0.22656,-0.27267 -0.22656,-0.4868 0,0 1e-5,-0.77582 1e-5,-0.77582 0,-0.21412 0.0755,-0.41752 0.22656,-0.6102 0.15206,-0.194 0.33517,-0.32052 0.54931,-0.37957 0.21414,-0.0591 0.39672,-0.0334 0.54776,0.077 0.15207,0.1091 0.2281,0.2707 0.2281,0.48482 0,0.0424 -0.0155,0.0834 -0.0465,0.123 -0.03,0.0383 -0.0662,0.0633 -0.10863,0.075 -0.0424,0.0117 -0.0791,0.007 -0.11017,-0.0146 -0.03,-0.0227 -0.045,-0.0553 -0.045,-0.0977 0,-0.12827 -0.0455,-0.22536 -0.13655,-0.29129 -0.091,-0.0659 -0.20069,-0.0812 -0.32896,-0.0458 -0.12828,0.0354 -0.23794,0.11113 -0.32897,0.22726 -0.091,0.11614 -0.13655,0.23834 -0.13655,0.3666 0,0 -1e-5,0.77582 -1e-5,0.77582 0,0.12827 0.0455,0.22536 0.13656,0.29128 0.091,0.0659 0.20068,0.0812 0.32896,0.0458 0.12828,-0.0354 0.23793,-0.11113 0.32896,-0.22726 0.091,-0.11613 0.13656,-0.23833 0.13656,-0.3666 0,0 0,-0.0776 0,-0.0776 0,0 -0.5431,0.14977 -0.5431,0.14977 -0.0424,0.0117 -0.0791,0.007 -0.11018,-0.0146 -0.03,-0.0228 -0.045,-0.0554 -0.045,-0.0977 0,-0.0424 0.015,-0.0827 0.045,-0.12103 0.031,-0.0395 0.0677,-0.0652 0.11017,-0.0769 0,0 0.69827,-0.19257 0.69827,-0.19257 0.0424,-0.0117 0.0786,-0.006 0.10863,0.0165 0.031,0.0214 0.0465,0.0534 0.0465,0.0958 0,0 -1e-4,0.8534 -1e-4,0.8534" />
      <path
         id="path2709"
         style="font-style:normal;font-variant:normal;font-weight:normal;font-stretch:normal;font-family:Instruction;-inkscape-font-specification:Instruction;fill:#44ccff;fill-opacity:1;stroke-width:0.07944555"
         d="m 180.16146,168.57815 c 0,0 -0.0853,0.30283 -0.0853,0.30283 -0.0207,0.0688 -0.0439,0.12231 -0.0698,0.16044 -0.0248,0.0368 -0.0584,0.0611 -0.10087,0.0728 -0.0424,0.0117 -0.0791,0.007 -0.11017,-0.0146 -0.03,-0.0228 -0.045,-0.0554 -0.045,-0.0977 0,-0.0352 0.0103,-0.0794 0.031,-0.13268 0,0 0.58967,-2.08664 0.58967,-2.08664 0,0 0.003,-8.3e-4 0.003,-8.3e-4 0.005,-0.0304 0.0198,-0.0603 0.0435,-0.0896 0.03,-0.0393 0.0662,-0.0648 0.10862,-0.0765 0.0424,-0.0117 0.0791,-0.006 0.11016,0.0161 0.0227,0.0165 0.0367,0.0385 0.0419,0.066 0,0 0.003,-8.2e-4 0.003,-8.2e-4 0,0 0.58965,1.76141 0.58965,1.76141 0.0207,0.0419 0.031,0.0804 0.031,0.11558 0,0.0424 -0.0155,0.0834 -0.0465,0.12299 -0.03,0.0383 -0.0662,0.0633 -0.10862,0.075 -0.0424,0.0117 -0.0765,0.006 -0.10242,-0.0168 -0.0248,-0.0242 -0.0476,-0.065 -0.0683,-0.12236 0,0 -0.0853,-0.25578 -0.0853,-0.25578 0,0 -0.72923,0.2011 -0.72923,0.2011 m 0.63467,-0.48534 c 0,0 -0.27,-0.81308 -0.27,-0.81308 0,0 -0.27001,0.962 -0.27001,0.962 0,0 0.54001,-0.14892 0.54001,-0.14892" />
      <path
         id="path2711"
         style="font-style:normal;font-variant:normal;font-weight:normal;font-stretch:normal;font-family:Instruction;-inkscape-font-specification:Instruction;fill:#44ccff;fill-opacity:1;stroke-width:0.07944555"
         d="m 183.16406,166.04333 c 0,0 0,2.01712 0,2.01712 0,0.0424 -0.0155,0.0834 -0.0465,0.12299 -0.03,0.0383 -0.0662,0.0633 -0.10863,0.075 -0.0424,0.0117 -0.0791,0.007 -0.11017,-0.0146 -0.03,-0.0228 -0.045,-0.0554 -0.045,-0.0978 0,0 0,-0.98218 0,-0.98218 0,0 -0.31034,1.0988 -0.31034,1.0988 0,0 -0.003,8.2e-4 -0.003,8.2e-4 -0.005,0.0305 -0.0193,0.0602 -0.0419,0.0892 -0.031,0.0395 -0.0677,0.0652 -0.11017,0.0769 -0.0424,0.0117 -0.0786,0.006 -0.10862,-0.0165 -0.0238,-0.0162 -0.0383,-0.038 -0.0434,-0.0656 0,0 -0.003,8.2e-4 -0.003,8.2e-4 0,0 -0.31034,-0.92763 -0.31034,-0.92763 0,0 -1e-5,0.98219 -1e-5,0.98219 0,0.0424 -0.0155,0.0834 -0.0465,0.12299 -0.03,0.0383 -0.0662,0.0633 -0.10862,0.075 -0.0424,0.0117 -0.0791,0.007 -0.11018,-0.0146 -0.03,-0.0228 -0.045,-0.0554 -0.045,-0.0978 0,0 10e-6,-2.01712 10e-6,-2.01712 0,-0.0424 0.0155,-0.0834 0.0465,-0.12299 0.03,-0.0383 0.0662,-0.0633 0.10862,-0.075 0.0424,-0.0117 0.0791,-0.007 0.11018,0.0146 0.0269,0.0205 0.047,0.062 0.0605,0.12451 0,0 0.44999,1.35306 0.44999,1.35306 0,0 0.45,-1.60125 0.45,-1.60125 0.0269,-0.0778 0.0502,-0.13125 0.0698,-0.16044 0.0248,-0.0368 0.0584,-0.0611 0.10087,-0.0728 0.0424,-0.0117 0.0786,-0.006 0.10862,0.0165 0.031,0.0214 0.0465,0.0534 0.0465,0.0958 0,0 -2e-4,1e-4 -2e-4,1e-4" />
      <path
         id="path2713"
         style="font-style:normal;font-variant:normal;font-weight:normal;font-stretch:normal;font-family:Instruction;-inkscape-font-specification:Instruction;fill:#44ccff;fill-opacity:1;stroke-width:0.07944555"
         d="m 184.87095,167.43457 c 0.0424,-0.0117 0.0786,-0.006 0.10862,0.0165 0.031,0.0214 0.0465,0.0534 0.0465,0.0958 0,0.0424 -0.0155,0.0834 -0.0465,0.12299 -0.03,0.0383 -0.0662,0.0633 -0.10862,0.075 0,0 -1.24138,0.34234 -1.24138,0.34234 -0.0424,0.0117 -0.0791,0.007 -0.11017,-0.0146 -0.03,-0.0228 -0.045,-0.0554 -0.045,-0.0978 0,0 0,-2.01712 0,-2.01712 0,-0.0424 0.015,-0.0827 0.045,-0.12103 0.031,-0.0395 0.0677,-0.0652 0.11018,-0.0769 0,0 1.24137,-0.34233 1.24137,-0.34233 0.0424,-0.0117 0.0786,-0.006 0.10862,0.0165 0.031,0.0215 0.0465,0.0534 0.0465,0.0958 0,0.0424 -0.0155,0.0834 -0.0465,0.12298 -0.03,0.0383 -0.0662,0.0633 -0.10862,0.075 0,0 -1.08621,0.29954 -1.08621,0.29954 0,0 0,0.69824 0,0.69824 0,0 0.93104,-0.25675 0.93104,-0.25675 0.0424,-0.0117 0.0786,-0.006 0.10862,0.0165 0.031,0.0215 0.0465,0.0534 0.0465,0.0958 0,0.0424 -0.0155,0.0834 -0.0465,0.12299 -0.03,0.0383 -0.0662,0.0633 -0.10862,0.075 0,0 -0.93104,0.25676 -0.93104,0.25676 0,0 0,0.69823 0,0.69823 0,0 1.08621,-0.29945 1.08621,-0.29945" />
      <path
         id="path2715"
         style="font-style:normal;font-variant:normal;font-weight:normal;font-stretch:normal;font-family:Instruction;-inkscape-font-specification:Instruction;fill:#44ccff;fill-opacity:1;stroke-width:0.07944555"
         d="m 186.8882,165.5206 c 0,0.0424 -0.0155,0.0834 -0.0465,0.12299 -0.03,0.0383 -0.0662,0.0633 -0.10863,0.075 -0.0424,0.0117 -0.0791,0.007 -0.11017,-0.0146 -0.03,-0.0227 -0.045,-0.0553 -0.045,-0.0978 0,-0.0962 -0.0341,-0.16903 -0.10241,-0.21847 -0.0683,-0.0495 -0.15052,-0.0609 -0.24672,-0.0344 0,0 -0.23276,0.0642 -0.23276,0.0642 -0.0962,0.0265 -0.17845,0.0833 -0.24673,0.17044 -0.0683,0.0871 -0.10241,0.17876 -0.10241,0.27496 0,0.0962 0.0341,0.16902 0.10241,0.21847 0.0683,0.0495 0.15052,0.0609 0.24673,0.0344 0,0 0.23276,-0.0642 0.23276,-0.0642 0.18206,-0.0502 0.33724,-0.0283 0.46551,0.0656 0.12931,0.0926 0.19397,0.22994 0.19397,0.41201 0,0.18205 -0.0647,0.35556 -0.19397,0.52052 -0.12827,0.16365 -0.28345,0.27058 -0.46551,0.32079 0,0 -0.23276,0.0642 -0.23276,0.0642 -0.18207,0.0502 -0.33777,0.029 -0.46708,-0.0636 -0.12827,-0.0939 -0.1924,-0.23193 -0.1924,-0.41398 0,-0.0424 0.015,-0.0827 0.045,-0.12103 0.031,-0.0395 0.0677,-0.0652 0.11017,-0.0769 0.0424,-0.0117 0.0786,-0.006 0.10862,0.0165 0.031,0.0214 0.0465,0.0534 0.0465,0.0958 0,0.0962 0.0341,0.16901 0.10241,0.21846 0.0683,0.0494 0.15052,0.0609 0.24673,0.0344 0,0 0.23276,-0.0642 0.23276,-0.0642 0.0962,-0.0265 0.17844,-0.0833 0.24672,-0.17045 0.0683,-0.0871 0.10241,-0.17875 0.10241,-0.27495 0,-0.0962 -0.0341,-0.16902 -0.10241,-0.21847 -0.0683,-0.0494 -0.15052,-0.0609 -0.24672,-0.0344 0,0 -0.23276,0.0642 -0.23276,0.0642 -0.18207,0.0502 -0.33777,0.029 -0.46708,-0.0636 -0.12827,-0.0939 -0.1924,-0.23192 -0.1924,-0.41397 0,-0.18206 0.0641,-0.35491 0.1924,-0.51855 0.12931,-0.16497 0.28501,-0.27255 0.46708,-0.32276 0,0 0.23276,-0.0642 0.23276,-0.0642 0.18206,-0.0502 0.33724,-0.0284 0.46551,0.0656 0.12931,0.0926 0.19397,0.22994 0.19397,0.41199 0,0 -1e-5,1e-5 -1e-5,1e-5" />
    </g>
  </g>
</svg>
